<svg preserveAspectRatio="none" width="100%" height="100%" overflow="visible" style="display: block;" viewBox="0 0 22 20" fill="none" xmlns="http://www.w3.org/2000/svg">
<path id="Vector" d="M19 12V15H22V17H19V20H17V17H14V15H17V12H19ZM19.0082 0C19.556 0 20 0.44495 20 0.9934L20.0007 10.3417C19.3749 10.1204 18.7015 10 18 10V2H2L2.001 16L11.2929 6.70715C11.6528 6.34604 12.22 6.31823 12.6123 6.62322L12.7065 6.70772L16.2521 10.2586C13.791 11.0069 12 13.2943 12 16C12 16.7015 12.1204 17.3749 12.3417 18.0007L0.9918 18C0.44405 18 0 17.5551 0 17.0066V0.9934C0 0.44476 0.45531 0 0.9918 0H19.0082ZM6 4C7.10457 4 8 4.89543 8 6C8 7.1046 7.10457 8 6 8C4.89543 8 4 7.1046 4 6C4 4.89543 4.89543 4 6 4Z" fill="var(--fill-0, #171717)"/>
</svg>
