<svg preserveAspectRatio="none" width="100%" height="100%" overflow="visible" style="display: block;" viewBox="0 0 19 20" fill="none" xmlns="http://www.w3.org/2000/svg">
<path id="Vector" d="M11.1202 15.0228L6.92129 12.7324C6.19135 13.5125 5.15261 14 4 14C1.79086 14 0 12.2091 0 10C0 7.79086 1.79086 6 4 6C5.15255 6 6.19125 6.48746 6.92118 7.26746L11.1202 4.97713C11.0417 4.66441 11 4.33707 11 4C11 1.79086 12.7909 0 15 0C17.2091 0 19 1.79086 19 4C19 6.20914 17.2091 8 15 8C13.8474 8 12.8087 7.51251 12.0787 6.73246L7.87977 9.0228C7.9583 9.3355 8 9.6629 8 10C8 10.3371 7.95831 10.6644 7.87981 10.9771L12.0788 13.2675C12.8087 12.4875 13.8474 12 15 12C17.2091 12 19 13.7909 19 16C19 18.2091 17.2091 20 15 20C12.7909 20 11 18.2091 11 16C11 15.6629 11.0417 15.3355 11.1202 15.0228ZM4 12C5.10457 12 6 11.1046 6 10C6 8.8954 5.10457 8 4 8C2.89543 8 2 8.8954 2 10C2 11.1046 2.89543 12 4 12ZM15 6C16.1046 6 17 5.10457 17 4C17 2.89543 16.1046 2 15 2C13.8954 2 13 2.89543 13 4C13 5.10457 13.8954 6 15 6ZM15 18C16.1046 18 17 17.1046 17 16C17 14.8954 16.1046 14 15 14C13.8954 14 13 14.8954 13 16C13 17.1046 13.8954 18 15 18Z" fill="var(--fill-0, #171717)"/>
</svg>
