<svg preserveAspectRatio="none" width="100%" height="100%" overflow="visible" style="display: block;" viewBox="0 0 24 24" fill="none" xmlns="http://www.w3.org/2000/svg">
<path id="Vector" d="M6.80084 21C6.32037 22.3594 5.02392 23.3333 3.5 23.3333C1.56701 23.3333 0 21.7664 0 19.8333C0 18.3094 0.973945 17.0129 2.33333 16.5325V6.80084C0.973945 6.32037 0 5.02392 0 3.5C0 1.56701 1.56701 0 3.5 0C5.02392 0 6.32037 0.973945 6.80084 2.33333H16.5325C17.0129 0.973945 18.3094 0 19.8333 0C21.7664 0 23.3333 1.56701 23.3333 3.5C23.3333 5.02392 22.3594 6.32037 21 6.80084V16.5325C22.3594 17.0129 23.3333 18.3094 23.3333 19.8333C23.3333 21.7664 21.7664 23.3333 19.8333 23.3333C18.3094 23.3333 17.0129 22.3594 16.5325 21H6.80084ZM6.80084 18.6667H16.5325C16.884 17.6722 17.6722 16.884 18.6667 16.5325V6.80084C17.6722 6.44934 16.884 5.66114 16.5325 4.66667H6.80084C6.44934 5.66114 5.66114 6.44934 4.66667 6.80084V16.5325C5.66114 16.884 6.44934 17.6722 6.80084 18.6667ZM3.5 4.66667C4.14433 4.66667 4.66667 4.14433 4.66667 3.5C4.66667 2.85567 4.14433 2.33333 3.5 2.33333C2.85567 2.33333 2.33333 2.85567 2.33333 3.5C2.33333 4.14433 2.85567 4.66667 3.5 4.66667ZM19.8333 4.66667C20.4777 4.66667 21 4.14433 21 3.5C21 2.85567 20.4777 2.33333 19.8333 2.33333C19.189 2.33333 18.6667 2.85567 18.6667 3.5C18.6667 4.14433 19.189 4.66667 19.8333 4.66667ZM19.8333 21C20.4777 21 21 20.4777 21 19.8333C21 19.189 20.4777 18.6667 19.8333 18.6667C19.189 18.6667 18.6667 19.189 18.6667 19.8333C18.6667 20.4777 19.189 21 19.8333 21ZM3.5 21C4.14433 21 4.66667 20.4777 4.66667 19.8333C4.66667 19.189 4.14433 18.6667 3.5 18.6667C2.85567 18.6667 2.33333 19.189 2.33333 19.8333C2.33333 20.4777 2.85567 21 3.5 21Z" fill="var(--fill-0, #171717)"/>
</svg>
