<svg preserveAspectRatio="none" width="100%" height="100%" overflow="visible" style="display: block;" viewBox="0 0 37 34" fill="none" xmlns="http://www.w3.org/2000/svg">
<path id="Vector" d="M31.6667 20V25H36.6667V28.3333H31.6667V33.3333H28.3333V28.3333H23.3333V25H28.3333V20H31.6667ZM31.6803 0C32.5933 0 33.3333 0.741583 33.3333 1.65567L33.3345 17.2362C32.2915 16.8673 31.1692 16.6667 30 16.6667V3.33333H3.33333L3.335 26.6667L18.8215 11.1786C19.4213 10.5767 20.3667 10.5304 21.0205 11.0387L21.1775 11.1795L27.0868 17.0977C22.985 18.3448 20 22.1572 20 26.6667C20 27.8358 20.2007 28.9582 20.5695 30.0012L1.653 30C0.740083 30 0 29.2585 0 28.3443V1.65567C0 0.741267 0.75885 0 1.653 0H31.6803ZM10 6.66667C11.841 6.66667 13.3333 8.15905 13.3333 10C13.3333 11.841 11.841 13.3333 10 13.3333C8.15905 13.3333 6.66667 11.841 6.66667 10C6.66667 8.15905 8.15905 6.66667 10 6.66667Z" fill="var(--fill-0, #171717)"/>
</svg>
