<svg preserveAspectRatio="none" width="100%" height="100%" overflow="visible" style="display: block;" viewBox="0 0 17 17" fill="none" xmlns="http://www.w3.org/2000/svg">
<path id="Vector" d="M4.85774 15C4.51455 15.971 3.58852 16.6667 2.5 16.6667C1.11929 16.6667 0 15.5474 0 14.1667C0 13.0782 0.695675 12.1521 1.66667 11.8089V4.85774C0.695675 4.51455 0 3.58852 0 2.5C0 1.11929 1.11929 0 2.5 0C3.58852 0 4.51455 0.695675 4.85774 1.66667H11.8089C12.1521 0.695675 13.0782 0 14.1667 0C15.5474 0 16.6667 1.11929 16.6667 2.5C16.6667 3.58852 15.971 4.51455 15 4.85774V11.8089C15.971 12.1521 16.6667 13.0782 16.6667 14.1667C16.6667 15.5474 15.5474 16.6667 14.1667 16.6667C13.0782 16.6667 12.1521 15.971 11.8089 15H4.85774ZM4.85774 13.3333H11.8089C12.06 12.623 12.623 12.06 13.3333 11.8089V4.85774C12.623 4.60668 12.06 4.04368 11.8089 3.33333H4.85774C4.60668 4.04368 4.04368 4.60668 3.33333 4.85774V11.8089C4.04368 12.06 4.60668 12.623 4.85774 13.3333ZM2.5 3.33333C2.96023 3.33333 3.33333 2.96023 3.33333 2.5C3.33333 2.03977 2.96023 1.66667 2.5 1.66667C2.03977 1.66667 1.66667 2.03977 1.66667 2.5C1.66667 2.96023 2.03977 3.33333 2.5 3.33333ZM14.1667 3.33333C14.6269 3.33333 15 2.96023 15 2.5C15 2.03977 14.6269 1.66667 14.1667 1.66667C13.7064 1.66667 13.3333 2.03977 13.3333 2.5C13.3333 2.96023 13.7064 3.33333 14.1667 3.33333ZM14.1667 15C14.6269 15 15 14.6269 15 14.1667C15 13.7064 14.6269 13.3333 14.1667 13.3333C13.7064 13.3333 13.3333 13.7064 13.3333 14.1667C13.3333 14.6269 13.7064 15 14.1667 15ZM2.5 15C2.96023 15 3.33333 14.6269 3.33333 14.1667C3.33333 13.7064 2.96023 13.3333 2.5 13.3333C2.03977 13.3333 1.66667 13.7064 1.66667 14.1667C1.66667 14.6269 2.03977 15 2.5 15Z" fill="var(--fill-0, #171717)"/>
</svg>
