<svg preserveAspectRatio="none" width="100%" height="100%" overflow="visible" style="display: block;" viewBox="0 0 16 20" fill="none" xmlns="http://www.w3.org/2000/svg">
<path id="Vector" d="M7.1411 2C5.5587 2 4.75361 2.16876 4.01266 2.56502C3.38342 2.90155 2.90155 3.38342 2.56502 4.01266C2.16876 4.75361 2 5.5587 2 7.14111V12.8589C2 14.4413 2.16876 15.2464 2.56502 15.9873C2.90155 16.6166 3.38342 17.0985 4.01266 17.435C4.75361 17.8312 5.5587 18 7.1411 18H8.8589C10.4413 18 11.2464 17.8312 11.9873 17.435C12.6166 17.0985 13.0985 16.6166 13.435 15.9873C13.8312 15.2464 14 14.4413 14 12.8589V7.14111C14 5.5587 13.8312 4.75361 13.435 4.01266C13.0985 3.38342 12.6166 2.90155 11.9873 2.56502C11.2464 2.16876 10.4413 2 8.8589 2H7.1411ZM7.1411 0H8.8589C10.8728 0 11.9528 0.27848 12.9305 0.8014C13.9083 1.32432 14.6757 2.09169 15.1986 3.06946C15.7215 4.04724 16 5.12721 16 7.14111V12.8589C16 14.8728 15.7215 15.9528 15.1986 16.9305C14.6757 17.9083 13.9083 18.6757 12.9305 19.1986C11.9528 19.7215 10.8728 20 8.8589 20H7.1411C5.12721 20 4.04724 19.7215 3.06946 19.1986C2.09169 18.6757 1.32432 17.9083 0.8014 16.9305C0.27848 15.9528 0 14.8728 0 12.8589V7.14111C0 5.12721 0.27848 4.04724 0.8014 3.06946C1.32432 2.09169 2.09169 1.32432 3.06946 0.8014C4.04724 0.27848 5.12721 0 7.1411 0ZM7 4H9V9H7V4Z" fill="var(--fill-0, #171717)"/>
</svg>
