<svg preserveAspectRatio="none" width="100%" height="100%" overflow="visible" style="display: block;" viewBox="0 0 43 54" fill="none" xmlns="http://www.w3.org/2000/svg">
<path id="Vector" d="M19.0429 5.33333C14.8232 5.33333 12.6763 5.78336 10.7004 6.84005C9.02245 7.73747 7.73747 9.02245 6.84005 10.7004C5.78336 12.6763 5.33333 14.8232 5.33333 19.043V34.2904C5.33333 38.5101 5.78336 40.6571 6.84005 42.6328C7.73747 44.3109 9.02245 45.596 10.7004 46.4933C12.6763 47.5499 14.8232 48 19.0429 48H23.6237C27.8435 48 29.9904 47.5499 31.9661 46.4933C33.6443 45.596 34.9293 44.3109 35.8267 42.6328C36.8832 40.6571 37.3333 38.5101 37.3333 34.2904V19.043C37.3333 14.8232 36.8832 12.6763 35.8267 10.7004C34.9293 9.02245 33.6443 7.73747 31.9661 6.84005C29.9904 5.78336 27.8435 5.33333 23.6237 5.33333H19.0429ZM19.0429 0H23.6237C28.9941 0 31.8741 0.742613 34.4813 2.13707C37.0888 3.53152 39.1352 5.57784 40.5296 8.18523C41.924 10.7926 42.6667 13.6726 42.6667 19.043V34.2904C42.6667 39.6608 41.924 42.5408 40.5296 45.148C39.1352 47.7555 37.0888 49.8019 34.4813 51.1963C31.8741 52.5907 28.9941 53.3333 23.6237 53.3333H19.0429C13.6726 53.3333 10.7926 52.5907 8.18523 51.1963C5.57784 49.8019 3.53152 47.7555 2.13707 45.148C0.742614 42.5408 0 39.6608 0 34.2904V19.043C0 13.6726 0.742614 10.7926 2.13707 8.18523C3.53152 5.57784 5.57784 3.53152 8.18523 2.13707C10.7926 0.742613 13.6726 0 19.0429 0ZM18.6667 10.6667H24V24H18.6667V10.6667Z" fill="var(--fill-0, #E1E3E6)"/>
</svg>
