<svg preserveAspectRatio="none" width="100%" height="100%" overflow="visible" style="display: block;" viewBox="0 0 14 14" fill="none" xmlns="http://www.w3.org/2000/svg">
<path id="Vector" d="M3.88619 12C3.61164 12.7768 2.87081 13.3333 2 13.3333C0.895433 13.3333 0 12.4379 0 11.3333C0 10.4625 0.55654 9.72167 1.33333 9.44713V3.88619C0.55654 3.61164 0 2.87081 0 2C0 0.895433 0.895433 0 2 0C2.87081 0 3.61164 0.55654 3.88619 1.33333H9.44713C9.72167 0.55654 10.4625 0 11.3333 0C12.4379 0 13.3333 0.895433 13.3333 2C13.3333 2.87081 12.7768 3.61164 12 3.88619V9.44713C12.7768 9.72167 13.3333 10.4625 13.3333 11.3333C13.3333 12.4379 12.4379 13.3333 11.3333 13.3333C10.4625 13.3333 9.72167 12.7768 9.44713 12H3.88619ZM3.88619 10.6667H9.44713C9.648 10.0984 10.0984 9.648 10.6667 9.44713V3.88619C10.0984 3.68534 9.648 3.23494 9.44713 2.66667H3.88619C3.68534 3.23494 3.23494 3.68534 2.66667 3.88619V9.44713C3.23494 9.648 3.68534 10.0984 3.88619 10.6667ZM2 2.66667C2.36819 2.66667 2.66667 2.36819 2.66667 2C2.66667 1.63181 2.36819 1.33333 2 1.33333C1.63181 1.33333 1.33333 1.63181 1.33333 2C1.33333 2.36819 1.63181 2.66667 2 2.66667ZM11.3333 2.66667C11.7015 2.66667 12 2.36819 12 2C12 1.63181 11.7015 1.33333 11.3333 1.33333C10.9651 1.33333 10.6667 1.63181 10.6667 2C10.6667 2.36819 10.9651 2.66667 11.3333 2.66667ZM11.3333 12C11.7015 12 12 11.7015 12 11.3333C12 10.9651 11.7015 10.6667 11.3333 10.6667C10.9651 10.6667 10.6667 10.9651 10.6667 11.3333C10.6667 11.7015 10.9651 12 11.3333 12ZM2 12C2.36819 12 2.66667 11.7015 2.66667 11.3333C2.66667 10.9651 2.36819 10.6667 2 10.6667C1.63181 10.6667 1.33333 10.9651 1.33333 11.3333C1.33333 11.7015 1.63181 12 2 12Z" fill="var(--fill-0, #171717)"/>
</svg>
