<svg preserveAspectRatio="none" width="100%" height="100%" overflow="visible" style="display: block;" viewBox="0 0 48 54" fill="none" xmlns="http://www.w3.org/2000/svg">
<path id="Vector" d="M4.02059 2.33592C4.18741 1.00144 5.32181 0 6.66667 0H41.3333C42.6781 0 43.8125 1.00144 43.9795 2.33592L47.9795 34.336C47.9931 34.4456 48 34.556 48 34.6667V50.6667C48 52.1395 46.8061 53.3333 45.3333 53.3333H2.66667C1.19392 53.3333 0 52.1395 0 50.6667V34.6667C0 34.556 0.00687998 34.4456 0.0205867 34.336L4.02059 2.33592ZM9.02075 5.33333L5.68741 32H42.3125L38.9792 5.33333H9.02075ZM42.6667 37.3333H5.33333V48H42.6667V37.3333ZM32 40H37.3333V45.3333H32V40ZM26.6667 40H21.3333V45.3333H26.6667V40Z" fill="var(--fill-0, #E1E3E6)"/>
</svg>
