<svg preserveAspectRatio="none" width="100%" height="100%" overflow="visible" style="display: block;" viewBox="0 0 18 20" fill="none" xmlns="http://www.w3.org/2000/svg">
<path id="Vector" d="M1.50772 0.87597C1.57028 0.37554 1.99568 0 2.5 0H15.5C16.0043 0 16.4297 0.37554 16.4923 0.87597L17.9923 12.876C17.9974 12.9171 18 12.9585 18 13V19C18 19.5523 17.5523 20 17 20H1C0.44772 20 0 19.5523 0 19V13C0 12.9585 0.00257999 12.9171 0.00771999 12.876L1.50772 0.87597ZM3.38278 2L2.13278 12H15.8672L14.6172 2H3.38278ZM16 14H2V18H16V14ZM12 15H14V17H12V15ZM10 15H8V17H10V15Z" fill="var(--fill-0, #171717)"/>
</svg>
